<svg xmlns="http://www.w3.org/2000/svg" width="100%" height="auto" viewBox="0 0 626 626" version="1.1">
	<path d="M 67.348 4.750 C 69.296 20.018, 70.197 39.592, 69.708 56 C 69.141 75.045, 66.265 108.941, 65.107 110.222 C 64.749 110.620, 61.540 105.919, 57.978 99.777 C 53.257 91.638, 49.331 86.425, 43.500 80.555 L 35.500 72.500 35.500 57.500 L 35.500 42.500 32.195 36.111 C 26.960 25.993, 16.266 9.865, 15.725 11.274 C 14.288 15.019, 19.940 34.402, 29.912 59.924 C 32.152 65.657, 33.876 70.443, 33.742 70.559 C 33.609 70.675, 26.300 64.763, 17.500 57.420 C 8.700 50.078, 1.133 44.055, 0.684 44.035 C 0.235 44.016, 0.010 45.048, 0.184 46.328 C 0.390 47.845, 4.804 52.452, 12.848 59.545 C 19.640 65.534, 24.786 70.571, 24.283 70.739 C 23.781 70.906, 19.124 70.414, 13.935 69.644 C 1.260 67.765, -0 68.292, -0 75.475 C -0 78.514, 0.171 81, 0.379 81 C 0.588 81, 3.254 79.857, 6.305 78.461 C 13.063 75.367, 28.416 73.591, 30.167 75.702 C 30.958 76.654, 30.312 79.167, 27.717 85.247 C 23.324 95.536, 20 106.281, 20 110.189 C 20 115.813, 30.849 138.923, 37.280 147 L 39.271 149.500 38.726 142 C 38.427 137.875, 36.961 129.100, 35.469 122.500 C 32.986 111.515, 32.800 109.248, 33.267 95.695 C 33.547 87.552, 34.057 80.610, 34.399 80.268 C 36.244 78.422, 50.981 96.603, 58.503 110.006 L 64.159 120.083 63.132 128.791 C 62.568 133.581, 61.832 140.425, 61.499 144 C 60.482 154.885, 59.234 158.102, 54.198 162.813 C 47.300 169.265, 48.503 169.653, 68.395 167.385 C 74.696 166.666, 81.841 168.635, 89.305 173.146 C 96.611 177.561, 98.371 174.626, 93.109 166.800 C 86.937 157.620, 87.215 161.899, 87.886 86.454 L 88.500 17.500 111.500 17.598 L 134.500 17.695 141 20.966 C 144.575 22.765, 153.874 28.427, 161.664 33.548 C 185.286 49.077, 187.030 49.194, 174.118 34.380 C 164.938 23.849, 154.689 14.440, 146.380 8.916 C 139.069 4.055, 135.713 3.921, 111.611 7.527 C 102.322 8.917, 94.535 9.869, 94.308 9.641 C 94.081 9.414, 95.381 8.303, 97.197 7.172 C 99.014 6.041, 102.050 3.965, 103.944 2.558 L 107.389 0 87.065 0 L 66.742 0 67.348 4.750 M 194.010 21.250 C 194.015 32.938, 194.476 57.086, 195.034 74.913 C 196.154 110.706, 196.586 107.013, 189.906 118.702 C 186.290 125.029, 187.774 125.804, 198.402 123.138 C 208.341 120.645, 218.662 120.392, 225.570 122.471 C 228.258 123.280, 230.837 123.563, 231.301 123.099 C 231.765 122.635, 230.140 119.794, 227.690 116.786 C 225.240 113.778, 222.939 110.384, 222.577 109.242 C 222.215 108.101, 221.271 100.492, 220.480 92.333 C 219.689 84.175, 218.561 74.125, 217.973 70 C 215.381 51.825, 213.887 35.214, 213.316 18.250 L 212.702 0 203.351 0 L 194 0 194.010 21.250 M 259.465 6.250 C 261.350 9.688, 265.596 20.755, 268.902 30.844 C 272.207 40.934, 275.391 49.766, 275.977 50.472 C 276.772 51.431, 274.610 55.904, 267.441 68.128 C 255.949 87.725, 247.735 104.428, 233.880 136.367 C 222.939 161.591, 222.330 162.311, 222.100 150.315 C 221.970 143.583, 223.225 140.484, 227.779 136.288 L 231.500 132.860 229.250 131.020 C 223.513 126.328, 191 127.998, 191 132.985 C 191 133.392, 192.398 135.474, 194.107 137.612 C 195.816 139.751, 197.605 142.512, 198.082 143.748 C 198.559 144.985, 199.183 156.685, 199.469 169.748 C 199.754 182.812, 200.439 198.675, 200.990 205 C 203.553 234.413, 203.537 236.083, 200.639 241.527 C 199.187 244.253, 198 247.220, 198 248.120 C 198 249.019, 197.392 250.260, 196.648 250.877 C 195.556 251.783, 194.950 250.720, 193.497 245.352 C 192.508 241.697, 189.585 234.384, 187.002 229.102 C 183.304 221.541, 181.027 218.314, 176.293 213.932 C 170.861 208.903, 160.256 201.305, 154.155 198.071 C 151.958 196.906, 151.855 196.975, 152.515 199.164 C 156.337 211.834, 172.612 237.799, 183.509 248.610 L 190.675 255.720 183.088 261.574 C 178.914 264.794, 169.513 272.338, 162.196 278.338 L 148.893 289.248 146.632 287.124 C 145.388 285.956, 143.878 285, 143.274 285 C 141.496 285, 137.329 290.572, 135.472 295.434 L 133.749 299.947 127.180 293.928 C 119.079 286.505, 110.872 281.428, 104.758 280.058 C 102.205 279.486, 95.575 278.720, 90.023 278.356 C 84.472 277.992, 79.788 277.426, 79.616 277.097 C 79.444 276.769, 79.667 272.675, 80.113 268 C 80.862 260.147, 85 198.800, 85 195.555 C 85 194.766, 86.800 192.042, 89 189.500 C 91.200 186.958, 93 184.435, 93 183.894 C 93 180.009, 80.845 174.284, 70.561 173.323 C 63.384 172.653, 53.119 174.526, 52.302 176.655 C 51.963 177.539, 53.156 179.631, 55.249 181.821 C 60.328 187.134, 61.442 191.464, 60.142 200.829 C 59.556 205.048, 58.571 219.525, 57.954 233 C 57.336 246.475, 56.702 259.525, 56.544 262 C 56.387 264.475, 56.200 268.637, 56.129 271.250 L 56 276 47 276 C 42.050 276, 38 276.394, 38 276.876 C 38 277.358, 42.039 278.536, 46.976 279.495 L 55.952 281.239 55.453 295.369 C 54.565 320.490, 54.387 321.721, 50.851 327.232 C 48.375 331.091, 47.886 332.592, 48.695 333.861 C 49.817 335.622, 50.224 335.636, 67.500 334.489 C 76.039 333.922, 78.447 334.125, 83.982 335.880 C 87.557 337.013, 90.847 337.553, 91.318 337.082 C 92.293 336.107, 90.572 332.500, 85.062 323.975 C 80.504 316.922, 79 309.900, 79 295.668 L 79 286 81.750 286.035 C 86.735 286.098, 99.412 288.751, 104.500 290.797 C 107.250 291.902, 114.822 295.315, 121.326 298.380 L 133.153 303.954 128.826 308.544 C 126.447 311.068, 122.805 315.691, 120.732 318.817 C 116.130 325.759, 102.690 352.219, 93.465 372.500 C 89.712 380.750, 86.272 387.928, 85.821 388.450 C 84.504 389.975, 84.906 378.032, 86.383 371.756 C 87.127 368.596, 89.641 362.746, 91.970 358.756 C 94.299 354.765, 96.435 349.874, 96.716 347.887 C 97.192 344.515, 97.003 344.197, 93.874 343.106 C 87.327 340.824, 71.482 339.627, 64.052 340.854 C 51.948 342.853, 49.911 344.573, 53.530 349.739 C 54.999 351.837, 54.742 352.225, 46.939 359.681 C 31.756 374.186, 20.245 392.581, 16.270 408.690 C 15.401 412.210, 14.400 414.733, 14.045 414.295 C 7.376 406.075, 5.713 403.193, 3.125 395.366 L 0.194 386.500 0.097 393.341 C 0.006 399.777, 0.207 400.424, 3.500 404.271 C 7.775 409.266, 7.939 410.537, 4.050 408.526 C 2.427 407.687, 0.852 407, 0.550 407 C 0.247 407, -0 409.672, -0 412.939 L -0 418.877 4.750 419.563 C 10.156 420.343, 13.850 421.904, 10.500 421.992 C 9.400 422.020, 6.588 422.912, 4.250 423.973 L 0 425.902 -0 445.300 L -0 464.697 3.634 474.598 C 5.633 480.044, 7.451 484.705, 7.674 484.956 C 7.897 485.207, 8.014 475.982, 7.935 464.456 C 7.856 452.930, 8.256 441.245, 8.824 438.490 C 10.180 431.916, 13.240 423.751, 14.500 423.344 C 15.050 423.166, 19.427 430.104, 24.227 438.760 C 33.415 455.331, 33.536 455.646, 55.527 520.500 L 63.327 543.500 62.206 553.626 C 60.815 566.206, 58.787 571.589, 52.085 580.500 C 46.889 587.409, 46.853 587.504, 49.349 587.811 C 50.740 587.981, 55.168 587.133, 59.189 585.926 C 70.191 582.622, 77.768 582.469, 89 585.324 C 94.225 586.652, 99.063 587.524, 99.750 587.262 C 101.831 586.469, 101.176 583.691, 97.557 577.956 C 87.938 562.716, 88.327 563.727, 87.656 552.206 C 87.313 546.318, 86.973 510.450, 86.900 472.500 L 86.767 403.500 100.255 373 C 123.248 321.001, 124.250 318.917, 128.509 314.214 L 132.540 309.761 132.161 320.841 C 131.580 337.807, 133.193 343.404, 145.836 368.289 C 158.274 392.774, 158.512 392.777, 156.963 368.411 C 155.629 347.422, 149.907 326.615, 140.905 310.016 L 137.914 304.500 140.068 302.750 C 141.252 301.788, 142.808 301, 143.525 301 C 144.242 301, 147.325 305.880, 150.377 311.845 C 155.302 321.475, 156.976 323.697, 165.309 331.663 C 174.822 340.758, 195.691 358, 197.185 358 C 198.698 358, 198.016 356.346, 193.189 348.315 C 186.503 337.190, 173.333 318.756, 161.762 304.326 C 156.393 297.631, 152 291.931, 152 291.661 C 152 291.106, 168.156 277.612, 184.147 264.811 C 192.427 258.184, 195.736 256.138, 199.030 255.611 C 201.361 255.239, 203.469 255.135, 203.715 255.382 C 204.529 256.196, 201.817 271.447, 200.354 274.280 C 199.564 275.809, 197.136 279.816, 194.959 283.185 C 191.229 288.956, 189.945 293, 191.843 293 C 192.307 293, 195.345 292.062, 198.593 290.916 C 203.757 289.094, 205.821 288.916, 215 289.506 C 232.434 290.626, 232.169 290.637, 233.378 288.741 C 234.250 287.375, 234.113 286.371, 232.768 284.241 C 228.732 277.855, 228.158 275.406, 227.902 263.492 L 227.645 251.541 231.483 250.633 C 234.142 250.004, 238.885 250.229, 246.911 251.364 C 257.839 252.909, 280.996 253.663, 279.767 252.434 C 278.761 251.427, 252.575 245.193, 244.226 243.973 C 239.772 243.321, 234.074 242.952, 231.564 243.151 L 227 243.514 226.986 238.507 C 226.979 235.753, 226.742 232.600, 226.460 231.500 C 226.097 230.083, 228.260 226.438, 233.878 219 C 238.241 213.225, 241.643 208.328, 241.440 208.118 C 241.236 207.908, 237.792 209.791, 233.785 212.302 L 226.500 216.867 225.868 211.183 C 225.521 208.058, 224.925 197.384, 224.543 187.464 L 223.850 169.428 226.997 161.464 C 229.900 154.116, 241.034 127.876, 241.532 127.209 C 241.652 127.048, 246.841 129.877, 253.064 133.493 C 265.017 140.440, 272.112 145.715, 274.588 149.494 C 275.412 150.751, 276.957 157.342, 278.021 164.140 C 280.082 177.307, 284.668 200.002, 285.420 200.753 C 287.687 203.020, 287.173 152.104, 284.843 143.599 C 282.493 135.021, 273.055 129.980, 252.751 126.457 C 247.675 125.576, 243.357 124.690, 243.154 124.488 C 242.143 123.476, 272.654 65.219, 279.024 56.001 C 280.529 53.823, 280.621 53.886, 286.608 61.148 C 289.941 65.192, 297.443 73.772, 303.278 80.216 C 315.292 93.484, 315.508 93.967, 317.018 111 C 318.197 124.301, 320.478 135.903, 322.441 138.589 C 323.688 140.294, 323.870 140.047, 324.508 135.798 C 324.892 133.234, 325.048 118.317, 324.853 102.649 L 324.500 74.160 322 71.439 C 317.106 66.111, 296.568 54.246, 286.698 51.044 C 281.320 49.299, 282.612 47.617, 289.961 46.796 C 293.425 46.409, 301.263 44.977, 307.379 43.612 C 334.896 37.474, 342.101 36, 344.577 36 C 347.123 36, 347.203 36.166, 346.619 40.250 C 345.631 47.161, 342.019 96.290, 341.330 112.185 C 340.737 125.856, 340.500 127.202, 337.897 131.685 C 332.430 141.100, 331.602 143.002, 332.560 143.941 C 333.135 144.505, 337.384 143.900, 343.500 142.384 C 352.351 140.190, 354.304 140.022, 360.500 140.917 C 383.815 144.286, 386.180 143.273, 379.295 132.870 C 374.385 125.450, 374.025 121.657, 374.012 77.250 L 374 36 389.250 35.930 L 404.500 35.861 398.500 33.552 C 395.200 32.282, 388.290 30.176, 383.144 28.871 L 373.789 26.500 374.173 13.250 L 374.557 0 362.386 0 C 348.690 0, 349.006 -0.185, 348.991 7.832 C 348.987 10.399, 348.706 14.804, 348.367 17.620 L 347.752 22.741 342.057 23.336 C 335.205 24.052, 317.894 29.861, 301.500 36.945 C 294.900 39.797, 288.892 42.391, 288.149 42.711 C 287.111 43.157, 287.168 42.576, 288.393 40.206 C 289.271 38.509, 293.254 34.660, 297.245 31.652 C 306.278 24.843, 307.133 23.899, 315.947 11 L 323.122 0.500 310.364 0.219 C 303.347 0.064, 297.067 0.144, 296.409 0.397 C 294.117 1.276, 288 23.071, 288 30.358 C 288 33.096, 282.910 43.412, 280.184 46.199 C 279.808 46.583, 279.379 40.091, 279.231 31.772 C 278.961 16.519, 277.384 6.877, 274.403 2.250 C 273.088 0.208, 272.171 -0, 264.496 -0 L 256.038 -0 259.465 6.250 M 461.459 1.067 C 460.393 2.791, 461.327 2.934, 464.002 1.454 C 466.411 0.120, 466.422 0.070, 464.309 0.035 C 463.104 0.016, 461.821 0.480, 461.459 1.067 M 512.467 32.250 C 512.743 49.988, 513.248 74.273, 513.588 86.218 L 514.208 107.937 510.604 114.381 C 508.622 117.925, 507 121.821, 507 123.037 C 507 124.927, 507.402 125.164, 509.750 124.663 C 511.262 124.340, 515.650 123.391, 519.500 122.555 C 528.368 120.629, 537.137 120.608, 543.366 122.498 C 550.933 124.794, 551.943 123.178, 546.644 117.253 C 541.161 111.120, 540.917 110.331, 539.010 92.500 C 538.480 87.550, 537.611 80.575, 537.079 77 C 535.647 67.392, 533.213 45.261, 531.999 30.800 C 531.025 19.201, 531.109 17.408, 532.966 10.133 C 534.085 5.752, 535 1.679, 535 1.083 C 535 0.368, 531.085 -0, 523.483 -0 L 511.966 -0 512.467 32.250 M 558.612 2.750 C 557.433 8.679, 556.003 21.336, 556.461 21.794 C 557.123 22.456, 558.646 18.246, 561.011 9.219 C 563.445 -0.075, 563.444 0, 561.079 0 C 559.784 0, 558.981 0.894, 558.612 2.750 M 593 0.315 C 593 0.555, 594.179 3.395, 595.620 6.626 C 598.929 14.046, 602.130 23.203, 601.601 23.733 C 601.378 23.955, 598.966 22.535, 596.240 20.577 C 584.754 12.325, 580.203 12.080, 569.378 19.134 C 558.212 26.409, 540.932 41, 543.482 41 C 543.917 41, 551.950 37.342, 561.333 32.870 C 576.070 25.847, 579.101 24.747, 583.595 24.787 C 588.702 24.833, 600 27.742, 600 29.011 C 600 29.366, 597.652 30.199, 594.782 30.861 C 588.240 32.371, 581.767 36.114, 579.017 39.977 C 577.845 41.622, 575.830 47.748, 574.495 53.723 C 572.049 64.669, 569.676 81.009, 570.423 81.756 C 570.950 82.283, 573.864 75.816, 580.622 59.123 C 587.398 42.384, 587.847 41.670, 595.704 35.125 C 603.404 28.711, 602.769 28.574, 615.282 39.355 C 626.207 48.768, 626 48.648, 626 45.567 C 626 43.208, 620.310 37.991, 607.614 28.707 C 606.290 27.739, 605.036 23.632, 603.101 13.933 L 600.422 0.500 596.711 0.190 C 594.670 0.019, 593 0.075, 593 0.315 M 399.171 41.525 C 397.458 48.153, 395.694 67.750, 396.291 73.526 C 396.610 76.625, 399.071 84.438, 402.023 91.728 L 407.195 104.500 406.555 126 C 405.697 154.837, 403.528 175.511, 400.365 185 C 398.990 189.125, 397.516 192.857, 397.089 193.293 C 396.662 193.730, 396.032 188.330, 395.689 181.293 C 395.042 168.058, 390.449 135.128, 389.047 133.675 C 387.978 132.568, 387.336 136.505, 385.405 156 C 383.423 176.017, 383.953 185.345, 387.806 198.235 L 390.715 207.969 382.061 226.235 C 370.198 251.270, 371.067 250.304, 371.025 238.500 C 370.974 224.606, 372.908 179.154, 373.955 169.626 C 374.793 161.999, 374.973 161.596, 379.660 156.813 C 384.186 152.196, 384.381 151.787, 382.673 150.521 C 380.138 148.642, 366.039 147.634, 351.613 148.300 C 333.182 149.151, 332.610 149.574, 338.443 158.054 C 340.361 160.841, 342.162 164.929, 342.509 167.280 C 342.852 169.601, 342.990 199.400, 342.816 233.500 L 342.500 295.500 339.750 300.717 C 335.019 309.692, 336.225 311.054, 347.629 309.608 C 354.997 308.674, 356.166 308.767, 373.652 311.672 C 379.014 312.563, 379.103 307.346, 373.838 300.782 C 371.869 298.328, 371.577 296.357, 370.834 280.495 L 370.012 262.927 373.618 255.766 C 375.601 251.827, 381.027 240.481, 385.675 230.553 C 390.323 220.624, 394.465 212.154, 394.881 211.732 C 395.598 211.003, 421.283 213.892, 432.934 216.011 C 435.922 216.555, 438.534 217, 438.738 217 C 438.942 217, 444.784 222.512, 451.720 229.250 C 458.655 235.988, 464.490 241.022, 464.686 240.438 C 465.165 239.006, 459.626 225.718, 456.880 221.712 C 453.228 216.385, 449.690 212.914, 446 211.037 C 441.289 208.642, 431.148 207.003, 420.918 206.985 C 416.288 206.976, 411.946 206.617, 411.268 206.187 C 410.492 205.694, 413.451 203.964, 419.268 201.509 C 446.299 190.101, 448.707 188.344, 460.902 171.132 C 470.338 157.814, 471.853 155.370, 470 156.458 C 468.493 157.342, 452.982 168.530, 436.838 180.377 C 429.184 185.994, 400.094 204, 398.673 204 C 398.375 204, 399.903 199.761, 402.068 194.581 C 407 182.776, 408.676 169.298, 409.537 134.500 L 410.131 110.500 412.815 110.344 C 414.292 110.258, 421.800 110.051, 429.500 109.885 C 446.517 109.517, 448.078 110.081, 462 121.635 C 476.530 133.694, 480 136.271, 480 135.004 C 480 133.315, 468.917 117.394, 462.159 109.377 L 456.364 102.500 447.432 102.593 C 439.927 102.671, 427.267 104.238, 414.700 106.645 C 411.935 107.174, 411.967 107.085, 417.200 99.590 C 420.115 95.414, 424.719 88.373, 427.431 83.942 C 431.179 77.820, 435.260 73.204, 444.431 64.712 C 460.188 50.124, 463 47.304, 463 46.094 C 463 44.605, 456.141 47.272, 445.038 53.078 C 433.675 59.021, 426.399 64.284, 423.405 68.727 C 421.240 71.940, 417.049 81.988, 412.812 94.124 L 410.500 100.748 410.282 88.624 C 410 72.935, 404.813 43.861, 401.483 39.308 C 400.331 37.732, 400.092 37.961, 399.171 41.525 M 619.702 72.889 C 612.507 76.680, 591.692 91.026, 592.384 91.717 C 593.200 92.533, 607.327 89.108, 615.232 86.177 C 626.356 82.053, 626.158 82.251, 625.805 75.596 L 625.500 69.834 619.702 72.889 M 519.128 128.978 C 514.867 129.462, 511.114 130.457, 510.236 131.335 C 508.877 132.694, 509.034 133.258, 511.721 136.677 C 517.884 144.518, 518 145.085, 518 167.315 C 518 179.088, 518.884 198.685, 520.089 213.614 C 522.386 242.092, 522.282 264.557, 519.819 271.512 C 519.037 273.718, 516.572 278.218, 514.340 281.512 C 509.907 288.053, 508.444 291.538, 509.783 292.366 C 510.258 292.660, 513.539 291.983, 517.074 290.863 C 522.427 289.165, 525.086 288.924, 533 289.415 C 538.225 289.740, 544.115 290.270, 546.088 290.593 C 548.665 291.015, 550.132 290.725, 551.296 289.562 C 553.101 287.756, 552.735 286.178, 549.350 281.187 C 548.115 279.364, 546.876 275.989, 546.597 273.687 C 545.855 267.540, 543.607 202.670, 544.089 201.281 C 544.315 200.630, 547.275 203.634, 550.668 207.956 C 554.060 212.279, 559.362 217.682, 562.449 219.963 C 567.596 223.765, 571.894 228.694, 583.820 244.477 C 586.196 247.621, 588.384 249.950, 588.682 249.651 C 589.709 248.624, 585.951 234.404, 583.008 228.181 C 577.186 215.870, 572.892 211.483, 552.500 197.018 L 546.500 192.761 562 193.310 C 572.143 193.670, 578.979 194.390, 581.781 195.396 C 584.135 196.241, 591.521 200.548, 598.194 204.966 C 604.867 209.385, 610.973 213, 611.762 213 C 613.724 213, 610.957 208.732, 602.683 198.997 C 594.974 189.927, 586.631 183.864, 580.720 183.034 C 576.597 182.455, 562.736 183.920, 554.250 185.830 C 549.351 186.934, 548.786 186.148, 552.783 183.787 C 557.693 180.887, 568.337 172.062, 574 166.197 C 578.728 161.300, 580.623 160.123, 587.500 157.814 C 591.900 156.336, 600.621 153.940, 606.879 152.490 C 613.138 151.039, 619.438 149.404, 620.879 148.856 C 623.370 147.909, 623.404 147.805, 621.550 146.768 C 618.540 145.083, 601.134 144.604, 591.918 145.952 C 576.507 148.205, 574.925 149.187, 558.138 166.919 C 541.446 184.551, 542.038 184.383, 542.015 171.500 C 542.008 167.650, 541.502 160.900, 540.890 156.500 C 539.470 146.294, 540.734 140.950, 545.581 136.659 C 549.679 133.031, 549.888 131.288, 546.385 129.956 C 542.637 128.531, 527.756 127.997, 519.128 128.978 M 428.532 249.102 C 430.066 256.372, 433.797 266.685, 437.652 274.313 C 442.458 283.823, 448.814 291.548, 464.146 306.510 C 472.508 314.671, 478.483 320.984, 477.425 320.538 C 462.966 314.454, 445.561 310.521, 436.368 311.259 C 428.943 311.855, 427.727 312.513, 409.311 325.915 C 394.582 336.633, 385.266 344.599, 386.277 345.610 C 386.616 345.949, 393.330 342.375, 401.197 337.667 C 427.970 321.645, 430.433 321.043, 457.317 323.944 C 467.868 325.083, 478.858 326.269, 481.741 326.578 C 486.404 327.080, 487.351 327.603, 490.324 331.321 C 495.104 337.299, 497.336 341.312, 501.512 351.433 C 504.740 359.254, 515 396.553, 515 400.464 C 515 401.445, 513.162 400.686, 509.250 398.089 C 501.650 393.045, 490.761 387.614, 483.006 385.002 C 471.116 380.997, 455.199 382.994, 439.831 390.419 L 432.500 393.961 442 393.481 C 447.225 393.218, 458.501 392.954, 467.058 392.895 C 482.381 392.791, 482.779 392.844, 493.331 396.374 C 499.223 398.346, 505.272 400.625, 506.772 401.440 C 509.441 402.888, 509.371 402.921, 503.500 402.975 C 496.340 403.040, 486.361 405.254, 481.219 407.918 C 474.002 411.655, 460.975 427.494, 462.192 431.051 C 462.361 431.547, 467.208 428.144, 472.962 423.487 C 478.716 418.831, 485.460 414.064, 487.949 412.894 C 493.918 410.088, 514.833 405.433, 516.041 406.641 C 516.600 407.200, 516.203 426.942, 515.027 457.030 C 512.697 516.693, 512.407 518.417, 501.970 534.856 C 498.644 540.095, 498.612 540.244, 500.535 541.668 C 501.780 542.591, 503.599 542.904, 505.500 542.524 C 507.150 542.194, 513.537 541.649, 519.693 541.312 L 530.887 540.700 531.563 543.397 C 531.936 544.880, 531.985 546.349, 531.672 546.661 C 531.360 546.974, 524.668 547.587, 516.802 548.024 C 499.617 548.980, 497 549.529, 497 552.183 C 497 553.264, 499.486 556.755, 502.524 559.940 C 507.442 565.096, 508.208 566.486, 509.507 572.616 C 511.987 584.324, 511.840 584.819, 504.209 590.454 C 500.519 593.179, 492.680 599.397, 486.788 604.272 L 476.077 613.136 462.002 605.431 C 454.261 601.193, 444.907 596.617, 441.214 595.262 C 432.420 592.036, 426.891 592.507, 404 598.431 C 378.975 604.907, 380.886 604.619, 384.962 601.310 C 386.865 599.765, 397.215 591.645, 407.962 583.266 C 457.282 544.813, 470.860 533.944, 470.948 532.846 C 471.044 531.644, 460.713 536.052, 433.885 548.662 C 414.042 557.988, 405.965 562.313, 402.138 565.660 C 396.626 570.482, 388.036 580.668, 380.980 590.750 C 378.575 594.188, 376.353 597, 376.043 597 C 375.733 597, 375.711 593.896, 375.992 590.102 C 376.601 581.916, 378.132 579.781, 385.041 577.486 C 391.260 575.421, 392.949 573.521, 390.631 571.200 C 389.217 569.785, 386.133 569.409, 372.217 568.958 C 358.552 568.515, 354.174 567.995, 348.236 566.106 C 344.241 564.836, 340.303 564.053, 339.486 564.367 C 336.362 565.566, 337.734 571.419, 342.594 577.630 C 349.649 586.644, 349.820 587.414, 349.929 610.750 L 350 626 362.500 626 L 375 626 375 617.019 C 375 608.514, 375.119 608.013, 377.250 607.558 C 378.488 607.294, 390.534 606.360, 404.020 605.483 C 423.053 604.245, 430.101 604.136, 435.520 604.995 C 443.848 606.316, 461.748 610.290, 469.426 612.521 L 474.925 614.120 468.713 620.025 C 461.785 626.610, 462.762 628.076, 470.912 623.326 C 476.551 620.040, 500.765 604.027, 507.250 599.295 L 512 595.830 512 610.915 L 512 626 523.803 626 L 535.605 626 539.864 610.250 C 542.206 601.587, 545.384 592.250, 546.927 589.500 L 549.731 584.500 556.866 584.206 L 564 583.912 563.993 588.206 C 563.988 591.922, 561.167 613.024, 559.376 622.750 C 558.834 625.692, 559.008 626, 561.217 626 C 563.553 626, 563.774 625.414, 566.385 612.255 C 569.710 595.504, 571.586 579.455, 570.654 575.750 C 569.733 572.090, 566.825 572.147, 559.560 575.968 L 553.917 578.937 558.708 572.821 C 561.344 569.457, 568.495 560.865, 574.599 553.726 L 585.698 540.747 597.099 537.430 C 603.370 535.605, 612.325 532.812, 617 531.221 L 625.500 528.330 625.818 524.541 L 626.136 520.752 622.318 521.400 C 620.218 521.756, 612.724 524.947, 605.665 528.489 L 592.831 534.930 596.215 531.215 C 598.076 529.172, 601.067 525.925, 602.861 524 C 604.654 522.075, 608.068 517.575, 610.445 514 C 616.352 505.120, 626.034 485.910, 624.069 486.970 C 616.340 491.139, 596.619 512.205, 592.286 520.921 L 590.507 524.500 589.924 512.912 C 589.408 502.665, 588.970 500.525, 586.136 494.412 C 584.374 490.610, 580.135 483.317, 576.716 478.205 L 570.500 468.910 570.207 479.705 C 569.729 497.269, 574.757 522.468, 580.944 533.516 L 583.753 538.532 578.716 544.010 C 571.725 551.614, 558.793 567.064, 555.359 571.917 C 553.787 574.139, 552.250 575.967, 551.945 575.979 C 551.639 575.990, 551.780 572.292, 552.258 567.760 C 552.796 562.655, 552.743 556.663, 552.118 552.010 C 551.488 547.319, 551.464 544.375, 552.054 544.167 C 553.880 543.523, 552.968 540.667, 549.639 536.603 C 544.245 530.016, 540.319 521.218, 539.101 512.985 C 536.006 492.071, 534.801 472.441, 534.311 435 C 533.875 401.559, 534.051 393.659, 535.464 383.500 C 536.382 376.900, 538.628 358.313, 540.455 342.195 C 542.282 326.077, 543.940 312.731, 544.139 312.537 C 544.337 312.343, 551.250 313.708, 559.500 315.569 C 576.669 319.443, 578.933 319.669, 573.889 317.003 C 568.743 314.283, 550.242 307, 548.480 307 C 546.431 307, 546.612 306.331, 549.503 303.214 C 550.879 301.730, 551.860 300.062, 551.683 299.508 C 551.506 298.953, 548.467 297.714, 544.930 296.753 C 539.871 295.379, 536.155 295.123, 527.500 295.553 C 517.637 296.043, 509 297.405, 509 298.471 C 509 298.688, 510.103 301.033, 511.451 303.683 C 513.334 307.386, 513.623 308.751, 512.701 309.587 C 511.197 310.948, 491.352 323, 490.614 323 C 490.315 323, 490.954 320.939, 492.034 318.420 C 501.319 296.759, 517.287 246.954, 515.515 245.182 C 514.815 244.481, 513.816 245.816, 502.150 263.038 C 496.521 271.349, 492.032 279.060, 491.672 281.038 C 490.446 287.766, 489.016 302.578, 489.008 308.625 C 489.004 311.994, 488.735 316.076, 488.411 317.697 C 487.868 320.408, 487.339 319.719, 481.786 309.072 C 478.467 302.707, 473.851 294.575, 471.529 291 C 467.908 285.427, 451.765 267.686, 432.494 248.102 L 427.182 242.704 428.532 249.102 M 202.500 250 C 202.160 250.550, 202.359 251, 202.941 251 C 203.523 251, 204 250.550, 204 250 C 204 249.450, 203.802 249, 203.559 249 C 203.316 249, 202.840 249.450, 202.500 250 M 200.664 296.026 C 196.354 296.437, 192.364 297.236, 191.799 297.801 C 191.094 298.506, 191.591 300.509, 193.379 304.165 C 194.815 307.099, 197.130 313.998, 198.524 319.496 L 201.060 329.491 200.031 362.996 C 198.965 397.747, 196.128 477.682, 195.728 484.253 L 195.500 488.006 188.500 483.372 C 170.178 471.242, 159.462 465.070, 154.771 463.945 C 147.491 462.199, 135.940 463.276, 127.288 466.509 C 120.317 469.114, 116.053 471.988, 119.128 472.010 C 125.651 472.057, 150.326 474.299, 153.431 475.127 C 155.593 475.703, 158.743 477.223, 160.431 478.504 C 164.168 481.341, 179.996 489.288, 185.500 491.091 L 189.500 492.401 185 493.071 C 182.525 493.440, 177.258 494.043, 173.296 494.411 C 158.835 495.755, 152.571 499.098, 140.948 511.677 C 134.124 519.063, 128.520 527.340, 130.007 527.836 C 131.919 528.473, 139.039 523.144, 160.107 505.310 C 162.625 503.178, 171.793 500.266, 180.986 498.678 L 189.392 497.227 183.946 501.793 C 174.779 509.479, 166.778 518.256, 164.618 522.992 C 161.747 529.289, 161.872 541.498, 164.932 553.794 C 166.205 558.906, 167.407 562.926, 167.605 562.728 C 167.803 562.530, 168.643 557.199, 169.471 550.882 C 171.596 534.673, 172.934 530.945, 179.229 523.708 C 182.199 520.294, 186.777 514.462, 189.402 510.750 C 192.028 507.038, 194.306 504, 194.466 504 C 194.889 504, 192.146 516.901, 190.852 521 C 190.244 522.925, 187.701 527.813, 185.200 531.863 C 181.637 537.632, 180.879 539.580, 181.700 540.863 C 182.833 542.634, 182.429 542.622, 201.500 541.462 C 210.943 540.889, 215.174 541.081, 221.357 542.367 C 231.054 544.383, 235 544.459, 235 542.631 C 235 541.877, 233.260 539.065, 231.133 536.381 C 226.615 530.678, 223.636 525.084, 222.140 519.494 C 219.158 508.352, 215.018 453.162, 215.006 424.379 L 215 410.258 228.250 404.196 C 242.312 397.763, 253.781 393, 255.210 393 C 255.685 393, 254.308 395.601, 252.149 398.781 C 240.918 415.319, 228.607 437.945, 229.265 440.839 C 229.529 442, 235.190 436.876, 248.071 423.816 C 261.117 410.590, 268.691 403.745, 274 400.383 C 278.125 397.771, 283.882 393.888, 286.794 391.753 L 292.088 387.872 308.294 399.110 C 330.334 414.395, 338.272 421.122, 345.094 430.295 L 350.891 438.091 350.418 458.295 C 350.158 469.408, 349.497 487.500, 348.949 498.500 C 347.195 533.732, 345.597 541.155, 338.619 546.477 C 335.998 548.476, 335 550, 335 552.004 C 335 557.768, 344.113 560.807, 365.595 562.208 C 378.883 563.074, 382.198 563.015, 384.595 561.869 C 389.517 559.517, 388.950 556.659, 382.157 549.585 C 377.898 545.150, 376.003 542.339, 375.638 539.916 C 375.355 538.037, 374.617 520.525, 373.998 501 C 373.378 481.475, 372.673 461.450, 372.430 456.500 C 372.187 451.550, 371.565 436.700, 371.047 423.500 C 370.530 410.300, 369.550 389.336, 368.869 376.912 C 367.402 350.119, 368.097 345.548, 375.532 333.096 C 381.344 323.362, 381.337 320.109, 375.500 318.174 C 365.788 314.953, 341.464 315.747, 336.401 319.449 C 334.623 320.749, 334.616 320.960, 336.251 324.155 C 337.193 325.995, 339.343 329.117, 341.029 331.093 C 346.699 337.736, 349.445 358.005, 350.636 401.977 L 351.325 427.455 344.913 421.871 C 341.386 418.799, 334.225 413.142, 329 409.299 C 320.141 402.783, 315.624 399.753, 299.025 389.195 L 292.550 385.077 289.831 368.788 C 288.335 359.830, 286.827 350.700, 286.478 348.500 C 285.234 340.643, 279.418 328.015, 271.952 316.960 C 265.783 307.826, 265.394 307.809, 264.647 316.650 C 263.643 328.523, 263.898 338.029, 265.365 343.500 C 266.966 349.468, 274.612 364.951, 280.427 374 C 282.725 377.575, 284.918 381.019, 285.302 381.654 C 285.706 382.322, 283.925 382.019, 281.065 380.933 C 278.351 379.901, 272.613 378.770, 268.315 378.418 C 261.907 377.894, 259.481 378.139, 254.842 379.781 C 247.420 382.408, 237.541 388.876, 225.543 398.964 C 220.191 403.464, 215.645 406.979, 215.442 406.775 C 214.876 406.209, 216.871 383.227, 218.026 377 C 218.587 373.975, 220.168 360.925, 221.540 348 C 225.677 309.003, 225.641 309.186, 230.241 304.157 C 232.658 301.514, 233.853 299.453, 233.294 298.894 C 231.844 297.444, 219.012 295.022, 213.500 295.157 C 210.750 295.225, 204.974 295.616, 200.664 296.026 M 503 321.235 C 496.675 323.492, 491.347 325.452, 491.160 325.592 C 490.974 325.732, 492.706 328.622, 495.010 332.015 C 497.314 335.407, 500.761 341.344, 502.670 345.207 C 505.986 351.916, 513.952 377.789, 515.460 386.745 C 515.852 389.079, 516.533 391.211, 516.972 391.483 C 517.411 391.754, 518.065 377.469, 518.426 359.738 C 518.944 334.280, 518.801 326.463, 517.743 322.567 C 517.006 319.854, 515.975 317.521, 515.452 317.383 C 514.928 317.245, 509.325 318.978, 503 321.235 M 569.198 337.204 C 575.964 346.117, 587.577 359.729, 595.005 367.454 C 602.432 375.179, 612.444 385.775, 617.252 391 L 625.994 400.500 625.997 393.073 C 626 386.428, 625.567 384.744, 621.887 377.073 C 618.412 369.829, 616.326 367.084, 608.429 359.364 C 596.075 347.287, 561.379 321, 557.793 321 C 557.300 321, 562.432 328.292, 569.198 337.204 M 55.377 358.678 C 49.754 372.274, 30.968 405.046, 23.171 414.863 C 21.702 416.713, 20.100 418.775, 19.611 419.445 C 19.019 420.257, 20.723 423.641, 24.715 429.582 C 35.163 445.130, 36.807 448.982, 49.935 488.650 L 62.791 527.500 62.931 506.500 C 63.008 494.950, 63.483 481, 63.986 475.500 C 66.096 452.420, 67.211 409.628, 66.109 393.969 C 64.033 364.457, 59.353 349.067, 55.377 358.678 M 585.500 398.094 C 572.835 401.624, 533.146 422.503, 536.750 423.738 C 537.438 423.974, 540.813 423.462, 544.250 422.600 C 564.956 417.409, 582.241 414.014, 588 414.008 C 591.575 414.004, 599.900 414.852, 606.500 415.894 C 613.100 416.935, 620.188 418.031, 622.250 418.330 L 626 418.874 626 412.645 L 626 406.417 620.250 403.579 C 611.584 399.303, 601.142 395.991, 596.575 396.071 C 594.334 396.110, 589.350 397.020, 585.500 398.094 M 622.913 430.250 C 621.121 433.080, 620.922 434.599, 621.368 442 C 621.650 446.675, 622.763 453.200, 623.841 456.500 L 625.800 462.500 625.900 444.750 C 625.955 434.988, 625.768 427, 625.485 427 C 625.202 427, 624.045 428.462, 622.913 430.250 M 196 547.979 C 183.431 548.786, 178 550.014, 178 552.049 C 178 552.654, 180.448 555.715, 183.440 558.852 C 186.432 561.989, 189.328 565.734, 189.876 567.174 C 191.895 572.485, 194 594.301, 194 609.920 L 194 626 203.500 626 L 213 626 213 616.942 C 213 600.497, 216.979 570.921, 219.984 565.031 C 221.075 562.893, 224.450 559.204, 227.484 556.834 C 233.367 552.240, 234.392 549.645, 230.750 548.568 C 226.929 547.439, 209.124 547.137, 196 547.979 M 169.500 566.406 C 152.514 572.026, 133.128 581.090, 121.677 588.765 C 113.926 593.960, 106.246 602.092, 96.334 615.598 C 92.575 620.721, 89.110 624.931, 88.634 624.956 C 87.364 625.021, 88.970 611.965, 90.626 608.759 C 92.329 605.463, 94.727 603.826, 102 600.997 C 108.871 598.323, 109.848 597.420, 107.936 595.508 C 105.620 593.192, 65.795 589.204, 57.462 590.453 C 51.033 591.418, 50.713 593.363, 56.211 598.062 C 61.251 602.370, 64.470 608.784, 65.465 616.500 C 66.833 627.118, 64.260 626, 87.337 626 L 107.635 626 116.568 618.860 C 131.769 606.708, 177.041 566.777, 177.833 564.822 C 178.316 563.632, 177.296 563.826, 169.500 566.406 M 537.124 566.768 C 536.603 567.741, 535.873 570.329, 535.501 572.518 C 535.130 574.708, 534.622 577.247, 534.374 578.159 C 533.997 579.547, 534.913 579.874, 539.963 580.159 C 543.285 580.347, 546.003 580.434, 546.002 580.354 C 545.995 579.775, 538.703 565, 538.424 565 C 538.230 565, 537.644 565.796, 537.124 566.768 M 338 587.148 C 324.575 594.786, 301.622 615.030, 297.627 622.755 L 295.949 626 309.724 625.994 L 323.500 625.989 333.150 609.744 C 342.226 594.465, 347 585.778, 347 584.540 C 347 583.146, 342.992 584.308, 338 587.148 M 538.880 586.218 L 533.261 588.153 532.669 594.327 C 532.343 597.722, 531.832 605, 531.533 610.500 L 530.989 620.500 534.494 610.500 C 538.936 597.824, 541.749 591.206, 544.124 587.846 C 547.276 583.386, 547.185 583.358, 538.880 586.218 M 233 594.907 C 233 595.474, 237.737 602.088, 243.526 609.604 C 249.315 617.120, 254.406 623.903, 254.839 624.677 C 255.443 625.756, 257.669 626.015, 264.400 625.792 L 273.175 625.500 265.801 618.226 C 254.573 607.150, 233 591.813, 233 594.907" stroke="none" fill="black" fill-rule="evenodd"/>
</svg>